<svg width="35" height="36" viewBox="0 0 35 36" fill="none" xmlns="http://www.w3.org/2000/svg">
<g id="Icons">
<g id="Color-">
<g id="Google">
<path id="Fill-1" fill-rule="evenodd" clip-rule="evenodd" d="M7.32568 17.8811C7.32568 16.7196 7.51859 15.6061 7.8629 14.5616L1.8363 9.95946C0.661753 12.3442 0 15.0314 0 17.8811C0 20.7284 0.660939 23.4139 1.83386 25.7971L7.8572 21.186C7.51615 20.1464 7.32568 19.0369 7.32568 17.8811Z" fill="#FBBC05"/>
<path id="Fill-2" fill-rule="evenodd" clip-rule="evenodd" d="M17.9069 7.31529C20.4301 7.31529 22.7093 8.20938 24.5 9.67244L29.7094 4.47046C26.5349 1.7069 22.4651 0 17.9069 0C10.8302 0 4.7483 4.04698 1.83594 9.96017L7.86253 14.5623C9.25116 10.3471 13.2095 7.31529 17.9069 7.31529Z" fill="#EB4335"/>
<path id="Fill-3" fill-rule="evenodd" clip-rule="evenodd" d="M17.9069 28.4485C13.2095 28.4485 9.25116 25.4167 7.86253 21.2015L1.83594 25.8028C4.7483 31.7168 10.8302 35.7638 17.9069 35.7638C22.2746 35.7638 26.4445 34.2129 29.5742 31.3071L23.8537 26.8846C22.2396 27.9015 20.2071 28.4485 17.9069 28.4485Z" fill="#34A853"/>
<path id="Fill-4" fill-rule="evenodd" clip-rule="evenodd" d="M34.9998 17.8819C34.9998 16.8253 34.837 15.6874 34.5928 14.6307H17.9065V21.5396H27.5113C27.031 23.8951 25.7238 25.7061 23.8533 26.8846L29.5739 31.3071C32.8615 28.2558 34.9998 23.7106 34.9998 17.8819Z" fill="#4285F4"/>
</g>
</g>
</g>
</svg>
